<svg width="14" height="10" viewBox="0 0 14 10" fill="none" xmlns="http://www.w3.org/2000/svg">
<path fill-rule="evenodd" clip-rule="evenodd" d="M0.4375 5.0166C0.4375 4.87364 0.486919 4.73653 0.574886 4.63544C0.662852 4.53435 0.782161 4.47756 0.906564 4.47756H11.9699L9.01763 1.08591C8.92955 0.984696 8.88007 0.847416 8.88007 0.704273C8.88007 0.56113 8.92955 0.423849 9.01763 0.322632C9.10571 0.221414 9.22516 0.164551 9.34972 0.164551C9.47429 0.164551 9.59375 0.221414 9.68182 0.322632L13.4343 4.63496C13.478 4.68503 13.5127 4.74452 13.5363 4.81001C13.56 4.87549 13.5721 4.9457 13.5721 5.0166C13.5721 5.0875 13.56 5.15771 13.5363 5.2232C13.5127 5.28869 13.478 5.34817 13.4343 5.39824L9.68182 9.71057C9.59375 9.81179 9.47429 9.86865 9.34972 9.86865C9.22516 9.86865 9.10571 9.81179 9.01763 9.71057C8.92955 9.60935 8.88007 9.47207 8.88007 9.32893C8.88007 9.18579 8.92955 9.04851 9.01763 8.94729L11.9699 5.55564H0.906564C0.782161 5.55564 0.662852 5.49885 0.574886 5.39776C0.486919 5.29667 0.4375 5.15956 0.4375 5.0166Z" fill="white"/>
</svg>
