<svg xmlns="http://www.w3.org/2000/svg"
    width="200"
    height="200"
    viewBox="0 0 200 200"
    fill="none">
    <path
        d="M54.1638 83.3315C52.3055 83.3315 50.5222 83.6149 48.7472 83.8732C49.3222 81.9399 49.9138 79.9732 50.8638 78.2065C51.8138 75.6399 53.2972 73.4149 54.7722 71.1732C56.0055 68.7482 58.1805 67.1065 59.7805 65.0315C61.4555 63.0149 63.7388 61.6732 65.5472 59.9982C67.3222 58.2482 69.6472 57.3732 71.4972 56.1399C73.4305 55.0315 75.1138 53.8065 76.9138 53.2232L81.4055 51.3732L85.3555 49.7315L81.3138 33.5815L76.3388 34.7815C74.7472 35.1815 72.8055 35.6482 70.5972 36.2065C68.3388 36.6232 65.9305 37.7649 63.2472 38.8065C60.5972 39.9899 57.5305 40.7899 54.6805 42.6899C51.8138 44.5065 48.5055 46.0232 45.5888 48.4565C42.7638 50.9649 39.3555 53.1399 36.8388 56.3315C34.0888 59.3149 31.3722 62.4482 29.2638 66.0149C26.8222 69.4149 25.1638 73.1482 23.4138 76.8399C21.8305 80.5315 20.5555 84.3065 19.5138 87.9732C17.5388 95.3232 16.6555 102.307 16.3138 108.282C16.0305 114.265 16.1972 119.24 16.5472 122.84C16.6722 124.54 16.9055 126.19 17.0722 127.332L17.2805 128.732L17.4972 128.682C18.9793 135.605 22.3913 141.968 27.3385 147.033C32.2857 152.098 38.5658 155.66 45.4525 157.305C52.3391 158.95 59.5509 158.612 66.2534 156.33C72.956 154.048 78.8755 149.915 83.3272 144.409C87.7789 138.903 90.5809 132.249 91.409 125.217C92.2371 118.185 91.0574 111.063 88.0066 104.673C84.9557 98.2839 80.1583 92.8887 74.1693 89.1119C68.1802 85.3351 61.2443 83.3311 54.1638 83.3315ZM145.83 83.3315C143.972 83.3315 142.189 83.6149 140.414 83.8732C140.989 81.9399 141.58 79.9732 142.53 78.2065C143.48 75.6399 144.964 73.4149 146.439 71.1732C147.672 68.7482 149.847 67.1065 151.447 65.0315C153.122 63.0149 155.405 61.6732 157.214 59.9982C158.989 58.2482 161.314 57.3732 163.164 56.1399C165.097 55.0315 166.78 53.8065 168.58 53.2232L173.072 51.3732L177.022 49.7315L172.98 33.5815L168.005 34.7815C166.414 35.1815 164.472 35.6482 162.264 36.2065C160.005 36.6232 157.597 37.7649 154.914 38.8065C152.272 39.9982 149.197 40.7899 146.347 42.6982C143.48 44.5149 140.172 46.0315 137.256 48.4649C134.43 50.9732 131.022 53.1482 128.505 56.3315C125.755 59.3149 123.039 62.4482 120.93 66.0149C118.489 69.4149 116.83 73.1482 115.08 76.8399C113.497 80.5315 112.222 84.3065 111.18 87.9732C109.205 95.3232 108.322 102.307 107.98 108.282C107.697 114.265 107.864 119.24 108.214 122.84C108.339 124.54 108.572 126.19 108.739 127.332L108.947 128.732L109.164 128.682C110.646 135.605 114.058 141.968 119.005 147.033C123.952 152.098 130.233 155.66 137.119 157.305C144.006 158.95 151.218 158.612 157.92 156.33C164.623 154.048 170.542 149.915 174.994 144.409C179.446 138.903 182.248 132.249 183.076 125.217C183.904 118.185 182.724 111.063 179.673 104.673C176.622 98.2839 171.825 92.8887 165.836 89.1119C159.847 85.3351 152.911 83.3311 145.83 83.3315Z"
        fill="#333333"
        fill-opacity="0.1" />
</svg>