<svg xmlns="http://www.w3.org/2000/svg" width="14" height="10" fill="none"><path fill="#fff" fill-rule="evenodd" d="M.438 5.017c0-.143.049-.28.137-.382a.44.44 0 0 1 .332-.157H11.97L9.018 1.086A.58.58 0 0 1 8.88.704c0-.143.05-.28.138-.381A.44.44 0 0 1 9.35.165c.124 0 .244.056.332.158l3.752 4.312a.6.6 0 0 1 .102.175.61.61 0 0 1-.102.588L9.682 9.711a.44.44 0 0 1-.332.158.44.44 0 0 1-.332-.158.58.58 0 0 1-.138-.382c0-.143.05-.28.138-.382l2.952-3.391H.907a.44.44 0 0 1-.332-.158.58.58 0 0 1-.137-.381" clip-rule="evenodd"/></svg>