<svg xmlns="http://www.w3.org/2000/svg" width="200" height="200" fill="none" viewBox="0 0 200 200"><path fill="#333" fill-opacity="0.1" d="M54.164 83.332c-1.858 0-3.642.283-5.417.541.575-1.933 1.167-3.9 2.117-5.666.95-2.567 2.433-4.792 3.908-7.034 1.233-2.425 3.409-4.067 5.009-6.142 1.675-2.016 3.958-3.358 5.766-5.033 1.775-1.75 4.1-2.625 5.95-3.858 1.933-1.108 3.617-2.334 5.417-2.917l4.492-1.85 3.95-1.642-4.042-16.15-4.975 1.2c-1.592.4-3.534.867-5.742 1.425-2.258.417-4.666 1.559-7.35 2.6-2.65 1.184-5.716 1.984-8.566 3.884-2.867 1.817-6.175 3.333-9.092 5.767-2.825 2.508-6.233 4.683-8.75 7.874-2.75 2.984-5.467 6.117-7.575 9.684-2.442 3.4-4.1 7.133-5.85 10.825-1.584 3.691-2.859 7.466-3.9 11.133-1.975 7.35-2.858 14.334-3.2 20.309-.284 5.983-.117 10.958.233 14.558.125 1.7.358 3.35.525 4.492l.209 1.4.216-.05a37.498 37.498 0 0 0 48.756 27.648 37.497 37.497 0 0 0 21.754-51.657 37.5 37.5 0 0 0-33.843-21.341m91.666 0c-1.858 0-3.641.283-5.416.541.575-1.933 1.166-3.9 2.116-5.666.95-2.567 2.434-4.792 3.909-7.034 1.233-2.425 3.408-4.067 5.008-6.142 1.675-2.016 3.958-3.358 5.767-5.033 1.775-1.75 4.1-2.625 5.95-3.858 1.933-1.108 3.616-2.334 5.416-2.917l4.492-1.85 3.95-1.642-4.042-16.15-4.975 1.2c-1.591.4-3.533.867-5.741 1.425-2.259.417-4.667 1.559-7.35 2.6-2.642 1.192-5.717 1.984-8.567 3.892-2.867 1.817-6.175 3.334-9.091 5.767-2.826 2.508-6.234 4.683-8.751 7.866-2.75 2.984-5.466 6.117-7.575 9.684-2.441 3.4-4.1 7.133-5.85 10.825-1.583 3.691-2.858 7.466-3.9 11.133-1.975 7.35-2.858 14.334-3.2 20.309-.283 5.983-.116 10.958.234 14.558.125 1.7.358 3.35.525 4.492l.208 1.4.217-.05a37.498 37.498 0 0 0 65.83 15.727 37.498 37.498 0 0 0-29.164-61.077"/></svg>