<svg xmlns="http://www.w3.org/2000/svg"><symbol id="x" viewBox="0 0 50 50"><path d="m5.92 6 14.662 21.375L6.23 44h3.18l12.576-14.578 10 14.578H44L28.682 21.67 42.199 6h-3.17L27.275 19.617 17.934 6zm3.797 2h7.164l23.322 34H33.04z"/></symbol><symbol id="ig" viewBox="0 0 48 48"><path d="M15 4C8.937 4 4 8.937 4 15v18c0 6.063 4.937 11 11 11h18c6.063 0 11-4.937 11-11V15c0-6.063-4.937-11-11-11zm0 2h18c4.983 0 9 4.017 9 9v18c0 4.983-4.017 9-9 9H15c-4.983 0-9-4.017-9-9V15c0-4.983 4.017-9 9-9m20 5a2 2 0 1 0-.001 3.999A2 2 0 0 0 35 11m-11 3c-5.511 0-10 4.489-10 10s4.489 10 10 10 10-4.489 10-10-4.489-10-10-10m0 2c4.43 0 8 3.57 8 8s-3.57 8-8 8-8-3.57-8-8 3.57-8 8-8"/></symbol><symbol id="tg" viewBox="0 0 50 50"><path d="M44.377 5.986c-.487.022-.961.157-1.389.328-.423.17-2.86 1.21-6.457 2.749a20315 20315 0 0 0-12.91 5.527c-9.272 3.972-18.383 7.88-18.383 7.88l.067-.025s-.55.184-1.108.573a3.1 3.1 0 0 0-.824.81 2.15 2.15 0 0 0-.357 1.432c.237 1.925 2.232 2.47 2.232 2.47l.008.004 8.902 3.047c.227.757 2.7 9.012 3.244 10.76.3.966.582 1.524.875 1.904.147.19.301.338.471.446q.103.062.209.103h.004l.025.008-.023-.006c.016.007.032.018.049.024.031.01.05.01.092.02 1.02.355 1.863-.306 1.863-.306l.035-.027 5.469-5.072 8.875 6.92.111.05c1.553.69 2.958.305 3.736-.328s1.084-1.449 1.084-1.449l.034-.086 6.521-33.99c.167-.76.19-1.418.033-2.012s-.54-1.11-1.02-1.396a2.6 2.6 0 0 0-1.468-.358m.053 2.034c.197-.01.344.013.39.04s.067.024.112.192c.044.167.068.52-.053 1.072l-.004.012-6.484 33.793c-.016.034-.15.347-.46.598-.314.256-.664.456-1.593.066l-9.705-7.568-.274-.215-.005.006-2.903-2.178 16.31-19.19A1 1 0 0 0 38.976 13a1 1 0 0 0-.53.168L14.844 28.902 5.928 25.85s-.886-.493-.928-.836c-.002-.02-.013-.002.033-.07.046-.07.162-.185.307-.286.29-.202.62-.324.62-.324l.034-.012.033-.013s9.112-3.91 18.383-7.881c4.636-1.986 9.312-3.988 12.908-5.526s6.194-2.644 6.414-2.732c.25-.1.5-.141.698-.15M33.613 18.793 21.244 33.346l-.006.006a1 1 0 0 0-.054.072 1 1 0 0 0-.055.084 1 1 0 0 0-.131.385v.007l-1.611 7.246c-.027-.078-.046-.106-.075-.199v-.002a2315 2315 0 0 1-3.167-10.506zM22.641 35.73l2.222 1.668-3.265 3.028z"/></symbol><symbol id="vk" viewBox="0 0 50 50"><path d="M25 2C12.31 2 2 12.31 2 25s10.31 23 23 23 23-10.31 23-23S37.69 2 25 2m0 2c11.61 0 21 9.39 21 21s-9.39 21-21 21S4 36.61 4 25 13.39 4 25 4m-9.998 14-4.035.002s-.231-.013-.51.023c-.279.037-.69.054-1.113.532l-.002.002-.002.002c-.376.43-.362.93-.315 1.205.047.274.152.479.153.48v.002c.039.095 2.968 7.274 6.662 11.13C18.445 34.102 21.23 35 23.713 35H25c.423 0 .802-.02 1.22-.236.42-.217.78-.816.78-1.282 0-.5.012-.987.076-1.257.06-.253.037-.191.06-.192a.7.7 0 0 1 .151.053c.179.08.454.26.76.498.61.474 1.334 1.162 2.144 1.693 1.162.77 2.422.723 2.422.723h4.157l.044-.004s.638-.014 1.293-.416c.328-.2.717-.569.848-1.121.13-.552-.036-1.131-.357-1.64-.118-.187-.687-1.013-2.961-3.032-.588-.52-.988-.89-1.147-1.086-.056-.07-.06-.063-.072-.066.013-.034.145-.311.496-.768.366-.476.923-1.14 1.639-2.05.912-1.163 1.552-2.28 1.955-3.223q.301-.707.43-1.287c.085-.388.153-.71.027-1.17a1.5 1.5 0 0 0-.602-.81 1.8 1.8 0 0 0-.695-.263c-.42-.078-.791-.064-1.137-.064-.724 0-3.941.025-4.207.025-.311 0-.809.13-1.039.262-.571.327-.75.776-.75.776l-.055.095-.03.108s-.733 2.37-1.487 3.591h-.002c-.886 1.44-1.547 2.01-1.838 2.172l-.035.02a1.4 1.4 0 0 1-.07-.326c-.043-.38-.018-.916-.018-1.434 0-1.434.108-2.329-.012-3.176-.06-.423-.211-.895-.558-1.258-.347-.362-.795-.54-1.242-.644h-.002c-.467-.107-.97-.2-2.176-.211-1.538-.014-2.54.033-3.43.43l-.01.006-.008.003a2.9 2.9 0 0 0-.873.608c-.122.126-.266.218-.367.621-.05.201-.055.582.172.89.228.31.547.402.735.426-.035-.004.147.036.289.106.14.07.263.17.294.21v.003c-.013-.017.123.32.159.627.035.307.029.554.029.554l-.002.06.006.061s.061.68.03 1.381a5 5 0 0 1-.12.92c-.003.012-.004.008-.008.018-.25-.175-.827-.784-1.623-2.098-.735-1.215-1.424-3.4-1.424-3.4l-.015-.049-.018-.047s-.128-.488-.695-.887c-.532-.374-1.037-.425-1.037-.425zm-.232 2c.057.02.176.064.199.074l-.024-.07.032.072.003.002v.002h.002c-.05-.035-.007 0-.002.008.028.094.639 2.197 1.592 3.773.869 1.435 1.51 2.239 2.211 2.72.7.479 1.641.43 2.12.18.639-.331.817-.877.94-1.331.124-.455.168-.916.188-1.352.038-.832-.027-1.512-.033-1.58.001-.038.01-.363-.041-.8-.051-.442-.143-.99-.535-1.542.439-.065.682-.164 1.568-.156 1.13.01 1.302.058 1.746.16.242.056.27.102.246.078-.022-.024-.002-.04.026.155.055.388-.008 1.384-.008 2.896 0 .426-.041 1.027.03 1.656.07.63.266 1.434 1.027 1.905.433.268 1.26.36 2.04-.075.78-.434 1.581-1.268 2.567-2.869.974-1.578 1.556-3.653 1.62-3.873l.017-.012c.017.001-.005.004.023.004.37 0 3.531-.025 4.207-.025.186 0 .268.01.407.016a5 5 0 0 1-.27.79c-.325.761-.883 1.748-1.69 2.776-.695.885-1.235 1.528-1.648 2.064-.413.537-.737.96-.873 1.573-.136.612.123 1.302.477 1.74.353.438.79.806 1.375 1.324 2.2 1.953 2.56 2.545 2.595 2.6v.002c.037.059.013 0 .028.03l-.287.085h-4.053s-.745-.024-1.297-.39l-.002-.003h-.002c-.585-.382-1.291-1.039-2.018-1.603-.363-.282-.733-.546-1.162-.74s-.972-.332-1.545-.16c-.828.247-1.288 1.036-1.435 1.662-.106.449-.09.84-.094 1.232C25.01 33 25.033 33 25 33h-1.287c-2.033 0-4.147-.62-6.428-3.004-2.965-3.096-5.61-9.084-6.008-9.994zm17.443.008c-.018.004.034.008.076.012-.006.003 0-.003-.008.001 0-.016-.044-.019-.068-.013"/></symbol></svg>